<?xml version="1.0" encoding="UTF-8"?>
<svg id="Layer_1" data-name="Layer 1" xmlns="http://www.w3.org/2000/svg" viewBox="0 0 100 16.25">
  <defs>
    <style>
      .cls-1 {
         fill: #091e42;
      }
    </style>
  </defs>
  <path class="cls-1" d="m94.66,4.71h1.96v9.26c-.7,0-1.38,0-2.07,0-.47,0-.48-.02-.67-.47-.11-.25-.24-.5-.36-.74-.43-.82-.86-1.63-1.31-2.45-.26-.48-.58-.94-.83-1.43-.23-.46-.41-.95-.61-1.43-.06-.14-.12-.28-.2-.41-.03-.06-.1-.09-.2-.19v7.12c-.58,0-1.13,0-1.68,0-.18,0-.24-.06-.24-.24,0-2.81,0-5.63,0-8.44,0-.19-.02-.38-.03-.58h3.22c.96,1.94,1.92,3.88,2.89,5.82.01.03.06.04.13.08v-5.9Zm-50.74,9.26c.61,0,1.21-.01,1.82,0,.3,0,.41-.09.46-.37.06-.33.17-.66.27-.99.06-.21.2-.24.39-.19.24.06.48.15.72.15.75,0,1.52.09,2.26-.16.17-.06.3,0,.35.18.09.34.19.67.27,1.02.05.22.17.39.33.38.44-.01.89-.03,1.33-.03.3,0,.59,0,.91,0-.08-.18-.15-.34-.21-.5-.24-.68-.47-1.35-.7-2.03-.14-.42-.3-.83-.44-1.25-.13-.38-.23-.76-.37-1.13-.15-.42-.35-.83-.49-1.25-.34-.97-.66-1.95-.98-2.92-.04-.13-.1-.18-.24-.18-.83,0-1.66,0-2.48,0-.13,0-.21.03-.26.17-.14.41-.29.82-.43,1.23-.41,1.19-.82,2.38-1.24,3.57-.14.39-.29.77-.42,1.16-.18.53-.36,1.06-.54,1.58-.12.35-.25.69-.38,1.03-.06.17-.13.33-.21.53.12,0,.2,0,.29,0Zm4.46-7.33c.13.06.17.39.21.51.12.34.21.69.32,1.03.21.7.42,1.4.62,2.1.01.04.02.07.02.11,0,.42-1.17.4-1.46.4-.41,0-1.12-.09-.89-.67.12-.3.19-.64.28-.95l.15-.5c.08-.25.45-2.12.73-2.04,0,0,.01,0,.02,0Zm-23.01-1.93h-2.87c-.02.11-.03.21-.07.3-.16.44-.33.87-.49,1.3-.36,1.02-.7,2.05-1.05,3.08-.22.64-.45,1.28-.68,1.92-.15.42-.3.85-.46,1.27-.13.36-.27.71-.39,1.07-.11.32-.08.35.24.32.08,0,.17,0,.25,0,.54,0,1.07,0,1.61,0,.08,0,.2-.01.22-.06.09-.18.16-.36.2-.55.08-.31.13-.63.21-1,1.23.34,2.45.3,3.65.02.14.5.28.94.38,1.39.04.19.12.22.29.21.7,0,1.41,0,2.18,0-1.08-3.08-2.16-6.17-3.24-9.26Zm-2.68,5.85c.16-.5.31-.97.44-1.44.14-.48.26-.97.39-1.45.08-.31.15-.62.24-.92.02-.06.11-.14.17-.15.06,0,.15.07.17.14.14.48.26.97.4,1.45.14.5.3.99.45,1.49.09.29.16.58.25.91-.84.27-1.67.3-2.52-.03Zm57.99-5.85c-.1.33-.2.64-.3.95-.29.84-.59,1.69-.88,2.53-.31.89-.62,1.77-.93,2.66-.34.96-.68,1.91-1.02,2.87-.03.09-.03.18-.05.28.78,0,1.51,0,2.24,0,.05,0,.12-.05.13-.1.14-.49.27-.99.41-1.53.24.06.47.15.71.16.49.04.98.06,1.47.05.36-.01.71-.1,1.06-.15.14-.02.28-.02.39-.03.16.56.3,1.08.45,1.6h2.42c-1.08-3.1-2.16-6.19-3.24-9.28h-2.87Zm.19,5.68c.26-.8.49-1.6.73-2.41.14-.48.21-1.07.57-1.45-.06.06.25.77.28.87.33,1.01.65,2.02.95,3.04.06.19-.6.34-1.27.37s-1.37-.09-1.26-.41Zm-26.35,2.7c0,.16.05.26.2.31.36.13.71.29,1.07.39.48.13.95.3,1.48.27.59-.03,1.18,0,1.77-.01.13,0,.26-.02.38-.05.32-.1.65-.18.95-.33.67-.34,1.14-.87,1.31-1.63.11-.49.1-.97.01-1.47-.14-.8-.6-1.31-1.3-1.63-.49-.23-1.03-.37-1.54-.55-.04-.01-.08,0-.11-.01-.19-.04-.39-.06-.58-.11-.28-.08-.56-.18-.84-.27-.55-.18-.76-.7-.43-1.13.13-.17.38-.3.59-.34.95-.18,1.87-.01,2.77.28.35.11.69.27,1.04.41v-2.08c-.2-.09-.37-.19-.56-.24-.34-.09-.7-.1-1.02-.22-.54-.19-1.09-.15-1.64-.16-.69,0-1.36.16-1.98.42-.58.24-1.07.62-1.3,1.27-.27.76-.29,1.49.05,2.22.31.68.84,1.12,1.54,1.35.87.28,1.75.52,2.62.77.38.11.61.4.59.77-.01.36-.29.67-.68.73-.81.13-1.61.11-2.4-.15-.05-.02-.11-.01-.16-.03-.28-.08-.58-.14-.85-.25-.33-.13-.64-.3-.99-.46,0,.65,0,1.29,0,1.92Zm15.91-6.6c0-.39,0-.78,0-1.17,0-.09-.08-.22-.16-.25-.23-.1-.48-.16-.73-.23-.39-.1-.78-.2-1.17-.29-.14-.03-.29-.04-.43-.04-.63,0-1.26,0-1.89.16-.6.16-1.15.34-1.6.78-.39.38-.61.87-.69,1.39-.09.61-.03,1.23.32,1.77.17.26.36.52.61.7.68.5,1.47.74,2.3.9.4.08.79.24,1.18.35.28.08.55.41.55.69,0,.32-.26.75-.54.8-.38.06-.76.1-1.14.08-.5-.03-.99-.08-1.49-.22-.58-.16-1.14-.36-1.67-.63-.04-.02-.09-.04-.14-.06,0,.67,0,1.31,0,1.95,0,.1.09.22.18.28.14.1.3.17.47.22.52.15,1.04.32,1.57.39.54.07,1.09,0,1.63.02.46,0,.91-.03,1.35-.18.7-.24,1.32-.56,1.65-1.26.28-.59.35-1.21.27-1.86-.09-.76-.44-1.35-1.13-1.7-.31-.16-.63-.31-.96-.42-.36-.12-.74-.18-1.1-.28-.5-.14-1.02-.26-1.47-.54-.32-.2-.33-.51-.27-.81.06-.29.33-.45.59-.49.97-.16,1.93-.05,2.86.27.36.12.71.28,1.1.43-.02-.26-.04-.5-.05-.73Zm-41.81-1.79c0,.59,0,1.16,0,1.73,0,.17.09.21.26.2.67-.02,1.35-.03,2.02-.03.17,0,.26.1.23.29-.02.15-.02.31-.02.46,0,2.09,0,4.19,0,6.28,0,.34,0,.33.33.33.57,0,1.14,0,1.74,0,0-.07.02-.16.02-.25,0-1.64,0-3.28,0-4.92,0-.61,0-1.23,0-1.84,0-.3.02-.35.32-.35.3,0,.6,0,.9,0,.38,0,.75,0,1.13.02.27.02.3.02.3-.25,0-.55,0-1.1,0-1.67h-7.2Zm8.98,9.3c.13-.01.24-.04.35-.04,1.22,0,2.44,0,3.66,0,.05,0,.11,0,.16.02.13.05.21,0,.25-.12.07-.2.12-.4.19-.6.15-.39.3-.77.47-1.2-.12,0-.2,0-.28,0-.8,0-1.61,0-2.41,0-.31,0-.34-.03-.35-.34,0-.06,0-.12,0-.18,0-2.12,0-4.25,0-6.37,0-.15.02-.3.03-.46h-2.06v9.3Zm35.9-.04c.1,0,.18,0,.26,0,.53,0,1.06,0,1.59,0,.31,0,.31,0,.31-.31,0-2.9,0-5.79,0-8.69v-.26h-2.16v9.26ZM7.84,8.94l2.39,5.09h4.78L9.27,2.18c-2.71,3.1-1.43,6.77-1.43,6.77Zm-4.46,5.09h4.6c1.47-4.2-1.41-6.39-1.41-6.39l-3.18,6.39Z"/>
</svg>