<?xml version="1.0" encoding="UTF-8"?>
<svg id="Layer_1" data-name="Layer 1" xmlns="http://www.w3.org/2000/svg" viewBox="0 0 400 152">
  <defs>
    <style>
      .cls-1 {
        fill: #207cba;
      }
    </style>
  </defs>
  <path class="cls-1" d="m320.96,118.85c-.35.35-.63.61-.88.89-2.27,2.51-4.59,4.95-7.3,7-2.42,1.84-4.99,3.36-8,4.05-1.96.45-3.91.35-5.83-.1-4.8-1.12-9.04-3.27-12.33-7.03-.49-.57-.91-1.2-1.36-1.8-.19-.26-.38-.52-.64-.86-.37.33-.7.59-.99.89-1.89,1.91-3.84,3.76-6.01,5.36-1.57,1.15-3.24,2.11-5.04,2.84-2.86,1.17-5.8,1.22-8.76.46-4.3-1.11-8.14-3.09-11.23-6.33-1.98-2.08-3.17-4.55-3.4-7.44,0-.1-.02-.2-.05-.29-.02-.06-.07-.11-.18-.27-.31.2-.64.38-.93.61-3.58,2.88-7.37,5.46-11.29,7.85-2.49,1.52-5.01,2.98-7.54,4.43-2.65,1.52-5.53,1.66-8.48,1.3-3.4-.41-6.5-1.7-9.56-3.12-1.07-.5-2.11-1.06-3.18-1.54-3.08-1.4-5.31-3.7-6.91-6.61-2.19-3.98-3.41-8.25-3.86-12.78-.4-4.02.48-7.8,1.8-11.53,1.58-4.46,3.67-8.68,5.96-12.81.19-.34.35-.68.55-1.09-1.47-.9-2.91-1.19-4.44-.46-3.62,1.71-7.11,3.64-10.45,5.86-3.89,2.58-7.52,5.48-10.8,8.8-7.46,7.53-12.54,16.39-14.98,26.73-.25,1.08-.6,2.14-1.02,3.17-.54,1.32-1.46,2.38-2.47,3.39-2.33,2.31-5.34,2.08-7.68.34-1.61-1.2-2.96-2.68-4.06-4.37-1.53-2.34-1.77-4.79-.75-7.4.8-2.04,2.03-3.81,3.25-5.59.59-.86,1.2-1.72,1.78-2.6.89-1.34,1.61-2.77,2.14-4.3,2.89-8.32,5.74-16.64,8.02-25.15.76-2.84,1.34-5.73,2.02-8.59.2-.87.11-1.69-.37-2.45-.11-.17-.19-.34-.28-.52-.85-1.67-.56-2.83,1.04-3.85,1.95-1.25,4.13-1.6,6.4-1.54,1.53.04,2.99.35,4.35,1.07.77.41,1.39.96,1.84,1.72,1.18,1.98,1.85,4.12,1.93,6.42.05,1.53-.06,3.07-.09,4.61,0,.16.04.32.06.47.45.19.71-.12.99-.31,1.61-1.06,3.22-2.14,4.82-3.22,2.91-1.97,5.91-3.76,9.11-5.23,3.73-1.72,7.53-1.79,11.41-.66,1.77.52,3.42,1.33,4.94,2.38.24.17.49.31.84.53.27-.28.54-.54.79-.83,2.49-2.87,4.96-5.76,7.48-8.6,1.79-2.01,3.7-3.89,6.06-5.26,2.88-1.66,5.96-2.66,9.26-3.06,4.21-.51,8.29.07,12.31,1.35,3.82,1.22,5.66,3.98,6.21,7.81.46,3.22-.26,6.24-1.36,9.22-1.63,4.41-4.05,8.37-7.04,11.97-3.37,4.06-6.85,8.03-10.54,11.8-5.67,5.8-11.76,11.12-18.56,15.58-1.15.75-2.34,1.45-3.48,2.22-1.04.7-1.22,1.26-.79,2.43,1.06,2.87,3.11,4.39,6.4,3.96,2.35-.31,4.47-1.26,6.51-2.38,5.68-3.12,10.94-6.84,15.78-11.15,2.91-2.59,5.87-5.13,9.09-7.35.24-.17.47-.36.73-.49,1.27-.65,1.98-1.68,2.49-3.01,3.65-9.59,8.19-18.78,12.95-27.86,5.55-10.59,11.45-20.99,17.5-31.3.85-1.46,1.42-3.09,2.11-4.64.67-1.53,1.27-3.09,2-4.59.56-1.16,1.35-2.17,2.36-2.99.99-.8,2.08-1.4,3.38-1.44,2.29-.08,4.58-.12,6.88-.13,1.06,0,2.06.3,3.04.7,1.2.49,1.95,1.36,2.45,2.53,1.37,3.19.99,6.19-.88,9.06-2.66,4.09-5.32,8.18-7.99,12.27-4.28,6.55-8.63,13.07-12.85,19.66-4.7,7.35-9.01,14.92-12.63,22.86-1.77,3.87-3.31,7.84-4.97,11.76-1.1,2.59-2.18,5.19-2.86,7.93-.73,2.95-1.02,5.93-.89,8.96.02.52.13,1.05.31,1.53.28.76.83,1.03,1.55.68.88-.43,1.75-.91,2.5-1.52,2.22-1.8,4.27-3.78,6.19-5.89,2.01-2.2,3.97-4.47,6.38-6.25,1.08-.79,2.22-1.54,3.43-2.08.97-.44,1.48-1.09,1.8-2.03.46-1.36.96-2.72,1.47-4.06,2.74-7.27,5.91-14.35,9.29-21.33,4.19-8.64,8.77-17.07,13.5-25.42,3.15-5.56,6.36-11.08,9.49-16.64.61-1.08.99-2.28,1.47-3.42.57-1.36,1.11-2.73,1.71-4.07.25-.57.59-1.1.92-1.62,1.47-2.28,3.51-3.57,6.28-3.58,1.93,0,3.87-.06,5.8,0,1.29.04,2.53.37,3.65,1.03.61.36,1.07.84,1.4,1.47,1.55,2.9,1.68,5.82.1,8.73-.76,1.41-1.64,2.76-2.52,4.1-5.15,7.83-10.33,15.63-15.46,23.47-5.63,8.62-10.96,17.41-15.36,26.73-1.77,3.76-3.32,7.62-4.93,11.45-.99,2.35-1.97,4.71-2.83,7.11-1.28,3.61-1.84,7.36-1.73,11.19.02.64.14,1.31.36,1.91.32.89,1,1.16,1.8.64,1.37-.89,2.78-1.77,3.96-2.89,2.21-2.09,4.28-4.33,6.39-6.53,1.73-1.8,3.5-3.55,5.59-4.93.49-.32.99-.63,1.51-.92.38-.21.55-.5.6-.94.69-6.33,2.7-12.25,5.57-17.9,2.17-4.27,4.55-8.43,7.43-12.26,2.67-3.56,5.51-7,8.37-10.41,1.8-2.14,3.96-3.89,6.37-5.35,4.78-2.9,11.8-2.32,16.37,1.55,1.16.98,1.99,2.16,2.54,3.55.28.7.53,1.41.85,2.09.3.65.63,1.29,1.01,1.91.8,1.3,1.95,2.16,3.51,2.19,1.6.04,3.2-.06,4.8-.09,3.01-.06,6.03-.18,9.04-.13,2.24.03,4.43.53,6.44,1.56.75.38,1.44.9,2.09,1.44.67.56.88,1.34.83,2.22-.03.53-.21.96-.63,1.27-.31.23-.65.44-.99.63-2.49,1.4-5.07,2.52-7.93,3.01-2.06.35-4.04,1.08-6.09,1.49-1.59.32-3.24.4-4.86.58-.75.08-1.5.15-2.25.17-.59.02-.9.37-1.08.85-.24.64-.45,1.3-.62,1.96-1.03,4.06-2.18,8.09-3.56,12.05-2.29,6.55-5.17,12.81-9.16,18.52-2.82,4.05-6.07,7.73-9.75,11.01-1.82,1.62-3.85,2.96-6.25,3.6-2.74.74-5.46.66-8.04-.6-3.16-1.53-6.22-3.25-8.78-5.7-.8-.77-1.49-1.65-2.23-2.48-.23-.26-.43-.55-.72-.93Zm31.84-49.62c-.89.15-1.48.6-2.01,1.15-.41.43-.79.88-1.14,1.35-3.96,5.31-7.63,10.81-10.77,16.65-2.2,4.1-4.19,8.3-5.54,12.77-.87,2.87-1.44,5.78-1.28,8.79.11,2.07.67,3.99,1.96,5.66.83,1.08,1.47,1.19,2.59.43.32-.22.62-.49.87-.78.52-.63,1.05-1.26,1.5-1.94,2.01-3.03,4.04-6.05,5.97-9.13,2.74-4.36,5.26-8.84,7.1-13.67,2.07-5.44,3.25-11.04,2.96-16.89-.03-.67-.13-1.41-.44-1.98-.48-.87-1.18-1.63-1.77-2.42Zm-113.25-3.29c.02-1.33-.4-1.67-1.29-1.39-.28.09-.55.22-.79.39-1.01.72-2.11,1.36-2.99,2.22-2.65,2.62-5.29,5.26-7.79,8.03-4.64,5.14-8.35,10.9-11.21,17.21-.32.71-.59,1.45-.92,2.17-.19.42-.03.67.29.92.53.41.84,0,1.18-.29,5.72-4.92,11.01-10.27,15.75-16.15,1.11-1.37,2.24-2.75,3.16-4.25,1.39-2.25,2.63-4.6,3.88-6.93.38-.71.57-1.51.71-1.92Zm-140.93,19.2c0,14.22,0,28.44,0,42.66,0,.33-.02.66,0,.98.08,1.39-.88,2.16-2.16,2.32-.26.03-.52.01-.79.01-28.69,0-57.37,0-86.06,0-.48,0-.99-.04-1.45-.19-.94-.3-1.42-1.01-1.5-1.98-.02-.26,0-.52,0-.79,0-28.73,0-57.46,0-86.2,0-.26-.01-.53,0-.79.07-1.05.77-1.84,1.82-2.02.35-.06.72-.06,1.08-.06,28.82,0,57.63,0,86.45,0,.26,0,.53-.01.79.02.99.14,1.72.9,1.79,1.91.04.55.05,1.11.05,1.67,0,14.15,0,28.31,0,42.46h-.02Zm-84.2-4.66h0c0,9.6,0,19.19,0,28.79,0,.82.05,1.64.16,2.44.18,1.28.95,2.06,2.24,2.27.71.12,1.43.16,2.15.16,8.36.01,16.71.01,25.07,0,.62,0,1.25-.06,1.86-.16,1.28-.22,2.05-1.01,2.24-2.27.09-.61.15-1.24.15-1.86.01-19.49.01-38.97,0-58.46,0-.72-.06-1.44-.17-2.15-.21-1.31-1.16-2.17-2.48-2.25-1.21-.08-2.42-.14-3.63-.14-6.65-.01-13.31-.01-19.96,0-1.6,0-3.21.07-4.81.13-1.48.06-2.38.82-2.67,2.27-.12.6-.16,1.23-.16,1.85,0,9.79,0,19.59,0,29.38Zm76.43-13.36c0-5.47,0-10.94,0-16.41,0-.55-.03-1.12-.15-1.65-.29-1.25-1.16-1.98-2.42-2.07-1.08-.08-2.16-.14-3.24-.14-7.31-.01-14.62-.01-21.92,0-1.14,0-2.29.06-3.43.14-1.19.09-2.05.7-2.37,1.87-.17.62-.24,1.29-.24,1.93-.02,8.78-.01,17.55-.01,26.33,0,2.23-.02,4.45.01,6.68.04,2.36,1.09,3.37,3.47,3.43.07,0,.13,0,.2,0,8.85,0,17.7,0,26.54,0,.49,0,.98-.07,1.46-.18,1.01-.23,1.69-.86,1.92-1.88.12-.57.19-1.16.19-1.75.01-5.44,0-10.87,0-16.31Zm24.59,55.87c.1,1.93.7,3.65,2.45,4.65,1.62.92,3.3,1.74,5.01,2.48,1.54.66,3.18,1.02,4.87.98,2.42-.05,4.12-1.72,4.26-4.13.08-1.4.1-2.81.2-4.22.11-1.6.16-3.21.45-4.78,1.48-8.15,3.45-16.19,5.93-24.09,3.35-10.65,7.67-20.89,12.92-30.73,1.91-3.58,3.92-7.11,5.88-10.67.27-.49.54-.94.35-1.56-.25-.81-.2-.83.63-1.02,3.67-.81,7.39-1.37,11.14-1.7,2.34-.21,4.71-.2,7.06-.23.71,0,1.42.16,2.12.32,1.31.3,2.41,1.01,3.38,1.92,1.07,1,2.32,1.3,3.72,1.08.55-.08,1.09-.21,1.62-.39,2.09-.7,3.89-1.83,4.82-3.91,1.12-2.5.7-3.85-.96-5.3-.96-.84-1.98-1.62-3.05-2.31-3.84-2.49-7.98-3.96-12.66-3.88-5.26.08-10.45.68-15.63,1.52-3.75.61-7.49,1.33-11.25,1.82-3.8.5-7.62.85-11.44,1.13-3.67.27-7.33.18-10.95-.65-.82-.19-1.69-.23-2.54-.23-2.04,0-3.59,1.25-3.96,3.26-.32,1.77-.54,3.56-.43,5.37.09,1.6.72,2.86,2.2,3.69,1.96,1.1,4.06,1.72,6.26,1.82,2.42.11,4.84-.05,7.27-.09.52,0,1.05-.06,1.57-.03.87.05,1.16.47.94,1.31-.07.28-.21.55-.33.82-3.17,6.83-6.12,13.75-8.75,20.82-2.68,7.21-5.14,14.49-7.25,21.89-1.74,6.07-3.37,12.17-5.02,18.26-.5,1.86-.85,3.77-.83,5.71,0,.36-.02.72,0,1.08Z"/>
</svg>