<?xml version="1.0" encoding="UTF-8"?>
<svg id="Layer_1" data-name="Layer 1" xmlns="http://www.w3.org/2000/svg" viewBox="0 0 400 400">
  <defs>
    <style>
      .cls-1 {
        fill: #ed1c24;
      }
    </style>
  </defs>
  <path class="cls-1" d="m347.19,113.89c3.72-1.81,7.58-3.38,11.14-5.46,10.23-5.99,18.28-14.42,25.71-23.51,1.48-1.81,2.69-3.89,4.4-5.42,1.05-.94,3-1.72,4.22-1.39.97.26,2.06,2.32,2.06,3.58.02,9.8-2.31,19.13-6.35,28.03-5.32,11.73-13.16,21.59-22.48,30.35-.89.83-1.78,1.66-2.61,3.32,2.22,0,4.49-.3,6.64.09,1.8.33,4.48,1.11,4.9,2.33.51,1.5-.35,4.3-1.61,5.44-7.18,6.44-14.64,12.55-22.03,18.75-.76.64-1.63,1.14-2.43,1.74-.14.11-.15.38-.3.8,1.77.29,3.5.51,5.21.86,3.93.81,5.12,4.1,2.5,7.18-5.54,6.5-12.1,11.84-19.57,15.9-6.81,3.7-13.86,6.96-21.67,10.85,1.1.75,2.2,1.29,3.03,2.11,2.77,2.76,2.75,4.92-.42,7.16-3.07,2.17-6.25,4.36-9.7,5.8-8.59,3.58-17.36,6.74-26.06,10.06-.7.27-1.42.5-2.59.9,1.82,1.74,3.42,3.19,4.94,4.73,2.98,3.02,2.61,5.39-1.17,7.26-7.87,3.9-16.28,5.82-24.98,6.53-5.52.45-11.06.65-17.06.99.72.82,1.2,1.46,1.77,2.01,1.62,1.52,3.38,2.9,4.91,4.51,4.03,4.28,3.57,6.9-2.14,7.96-8.14,1.51-16.46,2.1-24.71,3.02-1.4.16-2.84.02-4.38.02,2.66,7.81,1.62,9.64-6.45,11.15-2.38.45-4.88.6-7.29.42-2.55-.19-3.66.86-4.69,3.07-13.06,27.98-34.42,46.68-64,55.32-58.08,16.97-118.12-21.54-127.42-81.36-8.54-54.96,28.46-106.15,83.57-114.97,8.78-1.4,17.91-.77,26.88-.75,2.76,0,4.39-.23,6.03-3,14.29-24.22,35.55-38.86,63.38-42.05,16.7-1.92,33.73-1.39,50.6-1.22,24.04.24,48.02.24,71.74-4.39,25.32-4.94,47.46-15.93,65.67-34.41,1.61-1.64,3.26-3.46,5.7-1.99,2.44,1.47,1.52,3.88,1,6.03-4.65,19.31-15.34,34.77-30.34,47.48-1.33,1.13-2.67,2.26-4,3.39.15.27.31.54.46.81Zm31.8-54.99c-.26-.18-.52-.36-.78-.54-.86.8-1.68,1.65-2.58,2.4-5.98,4.97-11.66,10.36-18.02,14.78-23.22,16.16-49.83,21.95-77.44,23.32-19.08.95-38.23.26-57.34.49-11.22.13-22.52-.17-33.62,1.11-29.22,3.36-51.37,17.84-65.44,44-.91,1.68-1.89,2.1-3.68,1.81-11.66-1.92-23.28-1.42-34.77,1.17C31.36,159.61-1.42,211.34,10.43,265.51c11.05,50.51,62.96,84.66,113.61,74.39,33.83-6.86,57.91-26.34,72.18-57.79,1.02-2.24,2.23-2.71,4.49-2.79,3.96-.14,7.97-.49,11.84-1.32,3.19-.68,3.42-1.99,1.7-4.77-1.05-1.69-2.03-3.43-3.32-5.61,12.78-.42,24.84.98,36.99-4.06-4.75-4.46-9.03-8.49-13.31-12.51.13-.29.26-.58.4-.87,16.49-.57,33.22.15,49-8.57-3.95-3.48-7.36-6.48-10.87-9.58,5.43-1.61,10.69-2.7,15.56-4.72,8.68-3.61,17.23-7.6,25.64-11.82,3.67-1.84,3.48-2.75.25-5.46-1.48-1.25-3-2.45-4.56-3.72,8.49-4.06,16.7-7.66,24.59-11.86,7.92-4.23,14.89-9.8,20.43-16.9l-.25-1.27c-4.92-.53-9.85-1.06-15.68-1.68,1.69-1.17,2.67-1.95,3.73-2.58,10.24-6.14,19.92-13.01,27.93-21.98.79-.89,1.31-2.02,1.95-3.04-.15-.35-.31-.7-.46-1.04h-15.89c-.08-.3-.15-.6-.23-.9,20.27-16.88,35.29-36.6,35.5-64.38-1.19.64-1.91,1.6-2.71,2.47-6.02,6.53-11.72,13.4-18.17,19.47-8.38,7.89-18.36,13.22-29.77,15.5-1.5.3-3.06.25-4.6.37-.17-.38-.34-.77-.51-1.15,10.46-6.87,19.97-14.76,27.59-24.67,7.75-10.09,13.07-21.28,15.52-33.75ZM97.35,333.59c20.46,1.93,39.26-2.99,56.39-14.19,16.44-10.76,27.72-25.92,36.68-43.53-6.65-2.3-12.85-4.43-19.04-6.57-.32.33-.64.67-.96,1,3.1,4.43,6.2,8.87,9.42,13.49-4.63,1.2-8.87.39-12.97-.99-2.66-.9-4.02-.12-5.73,2.04-16.84,21.25-38.93,30.56-65.75,27.06-26.92-3.52-56.67-25.94-58.45-66.24-.07-1.55-.27-3.1-.48-5.38-3.75,9.29-4.12,9.43-8.32,4.25-3.96.84-7.66,1.63-11.4,2.42-.11,41.86,35.38,82.37,80.61,86.64ZM362.23,115.1c-14.03,8.33-29.68,11.12-45.52,12.68-29.94,2.95-59.94,2.86-89.94.49-14.4-1.14-28.6-.27-42.32,5.07-31.14,12.12-44.75,32.29-43.43,65.47.5,12.52-2.75,23.93-8.46,34.84-.64,1.23-1.27,2.46-1.9,3.7.25.19.49.38.74.57,2.06-1.93,4.31-3.7,6.14-5.83,7.16-8.28,9.68-18.23,10.4-28.92.46-6.85.81-13.84,2.48-20.45,6.14-24.3,31.93-43.87,57.73-44.21,11.34-.15,22.69.26,34.03.08,22.78-.36,45.61-.18,68.32-1.68,20.99-1.38,40.09-9.43,57.42-21.37,6.86-4.73,12.4-10.73,15.92-18.52-6.28,7.12-13.43,13.2-21.61,18.06Zm-178.23,2.88c12.18-3.03,24.64-3.21,37.08-3.41,20.78-.33,41.57-.31,62.34-.94,14.34-.43,28.54-2.26,42.15-7.28,17.19-6.35,32.01-15.83,42.28-31.46.66-1,1.14-2.12,1.71-3.19-1.66.59-2.74,1.53-3.79,2.5-9.05,8.43-19.39,14.72-30.87,19.34-21.05,8.46-43.08,11.26-65.52,11.66-20.12.36-40.25.19-60.35.86-9.49.32-19.08,1.4-28.37,3.35-15.5,3.25-29.4,10.01-40.09,22.22-4.26,4.87-7.54,10.34-9.57,16.67.69.37,1.14.66,1.63.86,1.73.71,3.48,1.4,5.6,2.24,9.7-19.13,26.11-28.55,45.77-33.43Zm-34.28,163.97c-14.34,15.3-32.03,21.96-52.7,18.54-32.9-5.44-53.64-35.57-47.89-68.55,5.32-30.53,36.67-52.31,67.04-46.28,6.45,1.28,12.66,3.75,18.97,5.67,1.62-6.34,1.01-7.61-5.29-9.87-10.86-3.9-21.96-5.12-33.44-3.55-36.02,4.94-61.88,41.09-54.88,76.88,7.3,37.29,42.28,60.5,79.38,52.43,16.67-3.63,29.75-12.86,39.81-26.9-6.62-3.2-6.54-3.12-11,1.64Zm175.9-100.56c-2.7.15-5.4.52-8.08.86-.7.09-1.96.48-1.95.68.12,2.37-1.84,1.99-3.01,2.14-2.41.31-4.9.06-7.31.37-2.04.26-4.73.33-5.88,1.62-1.92,2.16-3.97,2.1-6.27,2.01-2.55-.09-5.1-.37-7.65-.38-.76,0-2.05.41-2.21.92-.77,2.39-2.65,2.05-4.37,2.03-3.89-.05-7.87-.76-11.65-.17-4.62.73-9.08,2.47-13.57,3.89-1.69.53-3.23,1.65-4.94,2.01-3.04.63-6.16.87-9.86,1.36.85,1.14,1.03,1.57,1.35,1.78,3.98,2.59,7.97,5.18,11.99,7.7.51.32,1.26.39,1.9.39,20.09-.11,39.92-2.01,59.08-8.58,11.44-3.92,22-9.44,31.56-17.27-6.48-3.54-12.85-1.7-19.12-1.35Zm-57.1-25.11c1.91.71,3.78,1.55,5.73,2.1,3.46.97,7.05,2.74,10.45,2.45,9.04-.75,18.08-2.02,26.98-3.8,25.32-5.07,45.92-18.52,63.41-37.04,6.18-6.54,10.26-14.37,12.52-23.49-.47.39-.7.49-.78.66-6.71,13.55-17.5,22.75-30.94,29.15-.69.33-1.75.66-1.91,1.2-.96,3.14-3.69,3.13-6.12,3.74-.83.21-1.63.59-2.43.9-3.84,1.49-7.58,3.41-11.55,4.36-4.01.95-8.14-.1-12.15,2.8-3.03,2.19-7.7,2.06-11.62,3.07-1.58.41-3.05,1.2-4.62,1.65-.92.27-1.93.31-2.9.28-2.11-.07-4.21-.33-6.32-.33-.79,0-1.62.41-2.35.8-1.54.83-3.01,1.79-4.54,2.65-1,.56-2.93,1-2.95,1.55-.15,3.7-2.84,3.3-5.2,3.72-4.25.75-8.47,1.66-12.7,2.5,0,.36,0,.72,0,1.09Zm65.2,2.55c-.77-.1-1.55-.13-2.33-.18-2.29-.14-4.47-.13-3.29,3.86-2.51-.43-4.42-.79-6.33-1.08-1.85-.28-4.55-1.36-5.41-.54-2.83,2.67-6.23,3.21-9.66,4.02-.1.02-.17.16-.27.19-1.58.38-3.16.73-4.74,1.12-.89.22-1.75.55-2.64.74-1.07.23-2.24.72-3.22.48-2.25-.56-4.46-1.89-5.54,1.62-.13.43-1.34.68-2.07.75-1.54.15-3.11.09-4.66.17-4.06.21-8.26-.12-11.12,3.84-.49.68-2.02.71-3.09.84-2.31.3-4.64.42-6.95.75-.57.08-1.06.69-1.58,1.05,4.56.53,8.13,2.01,10.76,5.68.53.74,2.22.96,3.36.91,6.87-.31,13.8-.32,20.59-1.28,23.84-3.35,45.67-11.78,64.79-26.68,1.28-1,2.48-2.09,3.72-3.15-.07-.33-.15-.66-.22-.99-2.56,0-5.23-.5-7.64.1-5.84,1.44-11.56,3.39-17.77,5.27.06,2.44-2.05,2.83-4.67,2.5Zm-126.49,10.95c3.44,2.48,6.39,5.98,11.4,4.9,1.04-.22,2.21.13,3.32.16,15.94.52,31.73-.34,47-5.53,1.13-.38,2.08-1.31,3.12-1.98-.91-.88-1.66-2.06-2.74-2.59-12.94-6.31-26.64-9.02-40.98-7.95-2.69.2-6.02,1.27-7.69,3.15-1.9,2.14-3.62,2.44-6.1,2.81-4.34.64-8.57,2.06-12.95,3.18,2,1.36,3.85,2.56,5.63,3.85Zm100.41,43.46c-4.56-4.31-9.94-1.61-14.87-1.51-4.38.09-8.72,1.55-13.12,2.04-1.86.21-3.97-1.1-4.66,1.99-.1.45-1.91.86-2.83.71-5.58-.88-11.12-2.05-16.71-2.88-6.03-.9-12.54-1.22-17.31,2.67-3.94,3.21-8.19,4-12.61,5.18-2.16.58-4.23,1.48-6.96,2.46,19.81,9.04,74.86,2.17,89.08-10.67Zm-98.62-17.9c7.51,1.32,15.02,1.92,22.48.4,5.04-1.03,9.94-2.77,14.86-4.33,1.86-.59,3.59-1.57,5.37-2.39,2.57-1.19,5.14-2.4,7.71-3.6l-.18-1.63c-6.93-1.71-13.81-4.53-20.8-4.85-9.88-.45-19.86.92-29.78,1.62-1.13.08-2.79.53-3.23,1.34-1.39,2.56-3.73,2.44-5.99,2.75-1.27.17-2.55.31-4.45.54,4.03,5.05,7.79,9.06,14.01,10.16Zm-175.25,2.63c6.49-7.83,13.19-15.85,21.16-22.04,24.81-19.26,52.68-21.54,82.02-12.42,4.34,1.35,4.34,1.42,5.58-3.52-27.3-11.42-53.95-9.33-79.78,4.31-17.61,9.3-40.7,34.96-40.52,43.95,4.68-.87,2.96,3.06,3.54,4.36,2.48-4.69,4.43-10.35,8-14.65Zm208.29,8.96c-11.74-5.37-24.08-7.87-36.92-6.62-2.75.27-5.27,3.07-7.86,4.76-1.17.77-2.2,1.76-3.39,2.48-.9.54-1.93.9-2.95,1.19-1.53.43-3.09.86-4.67,1.02-1.1.11-2.25-.22-3.68-.4.6,2.81,6.31,2.28,3.14,6.18,4.83,3.27,14.9,5.28,21.78,3.96,7.18-1.37,14.36-2.91,21.37-4.96,4.9-1.43,9.51-3.82,14.99-6.09-1.3-1.1-1.52-1.38-1.81-1.51Zm-41.17,19.34c-3.38-1.07-7-1.51-10.23-2.91-4.43-1.92-8.77.27-10.74,2.55-2.7,3.12-5.01,2.14-7.82,2.24-1.73.06-4.16.29-4.97,1.4-1.29,1.76-2.4,1.89-4.18,1.52-1.29-.26-2.64-.2-3.96-.32-4.07-.37-8.14-.94-12.22-1.05-1.25-.04-2.73.94-3.7,1.87-.32.3.34,2.44,1.06,2.86,2.37,1.38,4.88,2.83,7.52,3.39,11.5,2.42,23.14,3.01,34.77,1.11,7.34-1.2,14.04-4.03,19.95-10.08-2.12-1.02-3.73-2.03-5.48-2.58Zm64.33,10.69c-2.79.06-5.69.34-8.36-.27-2.59-.59-4.79-3.61-7.74-.71-.23.23-1.04-.11-1.58-.23-3.65-.8-7.29-1.62-10.94-2.41-.42-.09-.89.08-1.32,0-2.19-.38-4.53-.43-6.52-1.29-5.22-2.26-10.23-4.15-15.27.38-.67.6-1.86.61-2.78.97-.9.35-1.76.81-2.65,1.21-1.55.7-3.09,1.41-4.64,2.09-.6.26-1.23.45-2.52.92,23.82,8.61,47.21,9.32,71.42,3.75-2.56-3.9-3.76-4.49-7.11-4.42Zm-37.96,17.94c-2.57-.26-4.59-.76-6.67-2.06-.73-.45-2.29-.9-2.55-.58-1.72,2.06-3.54,1-5.13.23-2.79-1.35-5.36-3.17-8.16-4.48-1.51-.71-3.44-1.35-4.97-1.02-2.65.58-4.49-.24-6.36-1.85-3.5-3.02-10.69-3.43-14.63-1.23-1.32.74-3.06.85-4.63,1.02-1.58.16-3.19.04-5.45.04,8.14,11.01,55.68,21.17,68.08,14.67-3.5-1.86-6.41-4.43-9.54-4.75Zm-47.18,4.51c-1.84-1.52-3.11-4.76-6.42-2.07-.31.25-1.69-.41-2.28-.97-1.2-1.14-2.11-2.58-3.28-3.75-2.89-2.89-5.79-5.79-8.86-8.48-.67-.59-2.52-.82-3.12-.34-2.14,1.72-3.91.89-5.8-.21-2.69-1.56-5.33-3.2-8.09-4.63-1.11-.58-2.46-.71-4.31-1.2,13.66,20.69,53,40.69,67.76,34.97-.99-3.57-4.21-5.18-7.05-5.13-3.44.06-5.27-1.75-7.48-3.48-1.73-1.36-3.45-2.73-5.52-4.37-.62,1-1.09,1.75-1.8,2.89-1.59-1.36-2.66-2.31-3.76-3.22Zm16.88-60.81c-.76-.87-1.1-1.48-1.63-1.82-9.65-6.2-20.21-9.07-31.63-7.84-4.29.46-5.97,2.97-6.26,7.26-.04.63-.26,1.26-.44,1.87-.71,2.39-1.43,4.77-2.27,7.53,15.33,1.54,28.92-.77,42.22-7.01Zm-35.13-13.61c14.78-.25,29.47-.89,43.05-8.93-.81-.71-1.17-1.16-1.63-1.41-7.28-3.85-14.83-6.75-23.08-8.09-5.34-.87-8.02,3.32-12.09,4.74-.29.1-.35.77-.57,1.14-.85,1.37-1.76,2.7-2.57,4.1-1.43,2.48-2.79,5-4.17,7.51.35.31.7.63,1.05.94Zm40.39-38.14c-2.19.59-4.44,1.04-6.56,1.82-2.41.88-4.71,2.06-7.06,3.09-.78.34-2.2.52-2.27.95-.49,3.12-2.97,3.75-5.21,5.01-.95.54-1.24,2.6-1.34,4.01-.03.38,1.79,1.25,2.76,1.25,3.33-.02,6.67-.22,9.98-.53,9.48-.88,18.6-3.1,27.11-7.51,1.17-.61,2.57-1.06,1.37-2.91-1.69-2.61-10.02-5.97-13.06-5.27-1.81.42-3.68.6-5.53.89-.06-.27-.12-.54-.19-.81Zm-32.94,131.24c-1.22-2.31-1.78-4.7-4.85-6.11-1.94-.89-4.88-1.66-5.81-3.19-3.05-5.04-8.59-6.68-12.6-10.33-4.73-4.3-9.02-8.89-12.26-14.39-1.26-2.13-2.52-2.13-4.23-.69-2.94,2.48-3.26,7.61-.4,10.8,8.55,9.56,18.41,17.37,30.54,21.94,2.96,1.12,6.06,1.88,9.1,2.8.17-.28.34-.56.51-.83Zm-65.5,18.42c6.41-.81,12.48-1.57,18.69-2.35-.52-7.17-.98-13.55-1.41-19.43-6.71.92-13.32,1.82-20.25,2.77.93,5.94,1.89,12.13,2.96,19.01Zm-17.62-82.28c-4.71-3.41-9.88-7.15-15.67-11.33-3.39,4.48-6.63,8.79-9.89,13.08-1.11,1.45-.75,2.5.6,3.65,4.31,3.65,8.52,7.4,12.43,10.81,4.25-5.5,8.33-10.76,12.54-16.2Zm20.34,17.82c-6.05,0-10.75,4.71-10.74,10.76,0,6.02,4.78,10.82,10.75,10.82,5.98,0,10.73-4.8,10.73-10.83,0-6.05-4.69-10.75-10.73-10.75Zm-51.24,26.64c7.17-.53,13.54-1.01,19.35-1.44-.97-6.5-1.88-12.68-2.86-19.26-5.81,1.1-11.96,2.27-18.92,3.6.85,5.95,1.63,11.45,2.43,17.11Zm58.78-50.17c-.56-5.5-1.08-11.32-1.84-17.1-.08-.62-1.59-1.5-2.44-1.49-4.93.04-9.86.31-14.94.51v19.4c6.37-.44,12.59-.86,19.22-1.32Zm-19.76,67.08c-5.24-3.87-10.26-7.57-15.56-11.48-3.27,4.85-6.83,10.15-10.77,16,4.55,3.43,8.93,6.73,13.54,10.21,4.72-5.44,8.93-10.28,12.79-14.72Zm84.81-56.44c-8.14-5.35-16.09-9.11-25.23-10.92-2.03,5.86-3.95,11.38-6.23,17.94,11.28-.05,21.26-2.06,31.46-7.02Zm52.98-66.76c9.87,3.24,19.81,2.09,29.57-.35,5.22-1.31,10.16-3.71,15.18-5.73.63-.26,1.04-1.22,1.38-1.94.06-.13-.76-1-1.09-.95-3.56.53-7.35.59-10.55,2-2.07.91-3.62,1.61-5.81.92-1.07-.34-2.94-.61-3.37-.06-1.44,1.82-2.8,1.03-4.44.67-1.05-.23-2.47-.07-3.36.49-2.15,1.35-4.02,1.23-6.24.12-1.46-.73-3.26-.92-4.94-1.05-1.68-.13-3.48.52-5.05.13-3.14-.78-5.53.25-8.61,2.6,2.8,1.23,4.99,2.4,7.32,3.17Zm-96.95,44.8c-6.66-2.54-12.58-4.81-19.41-7.41.85,7.83,1.56,14.36,2.39,21.93,5.96-5.08,11.06-9.44,17.02-14.52Zm-44.27-5.88c-6.03,3.18-11.49,6.07-17.51,9.24,6.18,4.46,11.47,8.27,17.51,12.62v-21.87Zm-25.4,86.12c4.03-6.01,7.45-11.11,11.19-16.69-6.73.49-12.77.92-20.22,1.46,3.12,5.26,5.9,9.95,9.03,15.23Zm-12.32-39.56c6.83-1.33,12.72-2.48,19.29-3.76-5.08-4.43-9.57-8.34-15.02-13.09-1.52,5.98-2.82,11.11-4.27,16.85Zm71.41,35.44c.51,6.74.96,12.64,1.49,19.54,5.31-3.17,9.88-5.89,14.93-8.91-5.73-3.71-10.78-6.97-16.43-10.63Zm22.74,2.33c-2.96-2.15-5.92-4.29-8.89-6.41q-5.8-4.13-11.14.67c-.14.12-.17.36-.33.71,5.43,3.51,10.88,7.03,16.45,10.63,1.62-1.8,3.01-3.34,4.35-4.83-.22-.4-.28-.65-.44-.76Zm-47.25,20.3c-1.03-6.56-1.89-12-2.87-18.21-4.27,4.91-7.95,9.15-12.35,14.2,5.33,1.4,9.98,2.63,15.22,4.01Zm3.15-73.97c.6.39,1.94.44,2.47.03,3.12-2.38,6.09-4.94,9.7-7.92-7.63-2.21-14.12-1.73-21.44,1.35,3.5,2.5,6.32,4.62,9.26,6.54Zm29.36-1.89c1.37-6.25,2.65-12.05,3.92-17.85l-1.14-.5c-4.16,3.54-8.32,7.08-12.55,10.69,3.18,2.5,6.1,4.79,9.77,7.66Zm-44.2,10.99c.82-.19,2.07-1.11,2.1-1.74.19-3.9.1-7.82.1-12.11-6.03,3.94-10.06,8.88-12.55,15.8,3.85-.7,7.13-1.21,10.35-1.95Zm31.16-6.64c.33,1.48,1.62,3.81,2.58,3.86,2.5.15,5.78,1.29,7.24-2.21.34-.81.67-2.19.26-2.66-2.9-3.33-6.18-6.24-11.04-8.01.32,3.36.34,6.25.95,9.01Zm-39.9,31.93c2.09-3.1,4.03-5.78,5.69-8.63.36-.63.05-2.17-.52-2.72-2.37-2.3-4.95-4.39-7.97-7.01-.92,6.74-.17,12.47,2.8,18.36Zm2.37,4.05c3.9,5.03,8.09,8.4,14.14,10.58-.63-4.18-1.16-7.72-1.71-11.42-4.12.28-7.91.53-12.43.84Zm37.35,9.53c-3.61-2.34-6.64-4.3-9.85-6.38-2.53,2.89-4.91,5.62-7.78,8.9,6.45,1,11.88.26,17.62-2.52Zm3.99-13c.3,3.23.59,6.46.96,10.46,1.82-1.94,3.12-3.33,4.38-4.67-1.75-2.23-3.23-4.12-4.71-6.01l-.63.22Zm-2.7,9.54c-.32-2.91-.55-5.04-.82-7.48-1.96,1.13-3.63,2.09-5.72,3.3,2.3,1.47,4.15,2.65,6.54,4.18Zm-22.12-4.31c.38,2.47.71,4.54,1.13,7.22,1.84-2.09,3.21-3.65,4.99-5.68-2.14-.54-3.9-.98-6.11-1.54Zm-12.86-21.19c.53-2.1.96-3.79,1.5-5.9-2.3.42-4.17.77-6.73,1.23,2.02,1.8,3.46,3.09,5.23,4.67Zm1.71,10.3c-1.19,1.83-2.18,3.34-3.5,5.35,2.45-.14,4.25-.25,6.66-.39-1.27-1.99-2.12-3.32-3.17-4.96Zm23.71-28.7c1.86.63,3.14,1.06,4.84,1.63-.3-1.81-.52-3.18-.85-5.21-1.54,1.39-2.6,2.33-3.99,3.58Zm-12.14.83c-1.55-1.06-2.73-1.87-4.31-2.94v5.32c1.66-.92,2.82-1.56,4.31-2.38Z"/>
</svg>